<svg enable-background="new 0 0 24 24" viewBox="0 0 24 24" xmlns="http://www.w3.org/2000/svg"><path d="m12 17.25c-.414 0-.75-.336-.75-.75v-3.75h-3.75c-.414 0-.75-.336-.75-.75s.336-.75.75-.75h3.75v-3.75c0-.414.336-.75.75-.75s.75.336.75.75v3.75h3.75c.414 0 .75.336.75.75s-.336.75-.75.75h-3.75v3.75c0 .414-.336.75-.75.75z"/><path d="m3.75 24c-2.068 0-3.75-1.682-3.75-3.75v-16.5c0-2.068 1.682-3.75 3.75-3.75h16.5c2.068 0 3.75 1.682 3.75 3.75v16.5c0 2.068-1.682 3.75-3.75 3.75zm0-22.5c-1.241 0-2.25 1.009-2.25 2.25v16.5c0 1.241 1.009 2.25 2.25 2.25h16.5c1.241 0 2.25-1.009 2.25-2.25v-16.5c0-1.241-1.009-2.25-2.25-2.25z"/></svg>