<svg enable-background="new 0 0 24 24" viewBox="0 0 24 24" xmlns="http://www.w3.org/2000/svg"><path d="m14.25 18.75c-3.308 0-6-2.692-6-6s2.692-6 6-6 6 2.692 6 6-2.692 6-6 6zm0-10.5c-2.481 0-4.5 2.019-4.5 4.5s2.019 4.5 4.5 4.5 4.5-2.019 4.5-4.5-2.019-4.5-4.5-4.5z"/><path d="m2.25 21.75c-1.241 0-2.25-1.009-2.25-2.25v-12c0-1.241 1.009-2.25 2.25-2.25h2.25v-.75c0-.414.336-.75.75-.75s.75.336.75.75v.75h2.536l.878-1.756c.384-.767 1.155-1.244 2.013-1.244h5.646c.858 0 1.629.476 2.013 1.244l.878 1.756h1.786c1.241 0 2.25 1.009 2.25 2.25v12c0 1.241-1.009 2.25-2.25 2.25zm0-15c-.414 0-.75.336-.75.75v12c0 .414.336.75.75.75h19.5c.414 0 .75-.336.75-.75v-12c0-.414-.336-.75-.75-.75h-2.25c-.286 0-.543-.159-.671-.415l-1.085-2.171c-.128-.255-.385-.414-.671-.414h-5.646c-.286 0-.543.159-.671.415l-1.085 2.17c-.128.256-.385.415-.671.415z"/><circle cx="4.125" cy="9.375" r="1.125"/></svg>