<svg enable-background="new 0 0 24 24" viewBox="0 0 24 24" xmlns="http://www.w3.org/2000/svg"><path d="m3 24c-1.241 0-2.25-1.009-2.25-2.25v-19.5c0-1.241 1.009-2.25 2.25-2.25h15.045c.592 0 1.149.227 1.572.639l2.954 2.883c.431.421.679 1.008.679 1.611v16.617c0 1.241-1.009 2.25-2.25 2.25zm0-22.5c-.414 0-.75.336-.75.75v19.5c0 .414.336.75.75.75h18c.414 0 .75-.336.75-.75v-16.617c0-.201-.083-.397-.227-.537l-2.954-2.883c-.141-.137-.326-.213-.523-.213z"/><path d="m6.045 9c-.414 0-.75-.336-.75-.75s.336-.75.75-.75h12c.414 0 .75.336.75.75s-.337.75-.75.75z"/><path d="m6.045 13.5c-.414 0-.75-.336-.75-.75s.336-.75.75-.75h12c.414 0 .75.336.75.75s-.336.75-.75.75z"/><path d="m6.045 18c-.414 0-.75-.336-.75-.75s.336-.75.75-.75h6c.413 0 .75.336.75.75s-.337.75-.75.75z"/></svg>