<svg enable-background="new 0 0 24 24" viewBox="0 0 24 24" xmlns="http://www.w3.org/2000/svg"><path d="m17.25 24c-3.722 0-6.75-3.028-6.75-6.75s3.028-6.75 6.75-6.75 6.75 3.028 6.75 6.75-3.028 6.75-6.75 6.75zm0-12c-2.895 0-5.25 2.355-5.25 5.25s2.355 5.25 5.25 5.25 5.25-2.355 5.25-5.25-2.355-5.25-5.25-5.25z"/><path d="m17.25 21c-.414 0-.75-.336-.75-.75v-2.25h-2.25c-.414 0-.75-.336-.75-.75s.336-.75.75-.75h2.25v-2.25c0-.414.336-.75.75-.75s.75.336.75.75v2.25h2.25c.414 0 .75.336.75.75s-.336.75-.75.75h-2.25v2.25c0 .414-.336.75-.75.75z"/><path d="m3.75 7.5c-.414 0-.75-.336-.75-.75s.336-.75.75-.75h10.5c.414 0 .75.336.75.75s-.336.75-.75.75z"/><path d="m3.75 12c-.414 0-.75-.336-.75-.75s.336-.75.75-.75h6c.414 0 .75.336.75.75s-.336.75-.75.75z"/><path d="m3.75 16.5c-.414 0-.75-.336-.75-.75s.336-.75.75-.75h3.75c.414 0 .75.336.75.75s-.336.75-.75.75z"/><path d="m2.25 21c-1.241 0-2.25-1.009-2.25-2.25v-16.5c0-1.241 1.009-2.25 2.25-2.25h10.629c.601 0 1.165.234 1.59.658l2.872 2.872c.425.425.659.99.659 1.591v2.379c0 .414-.336.75-.75.75s-.75-.336-.75-.75v-2.379c0-.197-.08-.39-.219-.53l-2.872-2.872c-.142-.141-.33-.219-.53-.219h-10.629c-.414 0-.75.336-.75.75v16.5c0 .414.336.75.75.75h5.25c.414 0 .75.336.75.75s-.336.75-.75.75z"/></svg>