<svg enable-background="new 0 0 24 24" viewBox="0 0 24 24" xmlns="http://www.w3.org/2000/svg"><path d="m8.251 16.498c-.2 0-.389-.078-.53-.22-.292-.292-.292-.768 0-1.061l13.72-13.72h-4.939c-.414 0-.75-.336-.75-.75s.336-.75.75-.75h6.75c.089 0 .176.016.261.048.011.004.022.008.032.012.176.072.324.221.4.404.003.008.007.017.01.026.031.081.047.17.047.26v6.75c0 .414-.336.75-.75.75s-.75-.336-.75-.75v-4.938l-13.72 13.72c-.142.141-.331.219-.531.219z"/><path d="m2.251 23.998c-1.241 0-2.25-1.009-2.25-2.25v-15c0-1.241 1.009-2.25 2.25-2.25h9c.414 0 .75.336.75.75s-.336.75-.75.75h-9c-.414 0-.75.336-.75.75v15c0 .414.336.75.75.75h15c.414 0 .75-.336.75-.75v-9c0-.414.336-.75.75-.75s.75.336.75.75v9c0 1.241-1.009 2.25-2.25 2.25z"/></svg>