<svg enable-background="new 0 0 24 24" viewBox="0 0 24 24" xmlns="http://www.w3.org/2000/svg"><path d="m.75 24c-.414 0-.75-.336-.75-.75v-22.5c0-.414.336-.75.75-.75s.75.336.75.75v1.88l2.184-.671c.988-.304 2.014-.458 3.047-.458 1.919 0 3.797.531 5.43 1.537 1.396.859 3.005 1.313 4.651 1.313.823 0 1.64-.114 2.428-.339l2.369-.677c.167-.047.339-.072.512-.072.502 0 .973.195 1.327.548.356.353.552.824.552 1.325v11.728c0 .833-.559 1.574-1.36 1.803l-2.987.854c-.921.262-1.874.395-2.833.395-1.928 0-3.811-.532-5.445-1.54-1.397-.86-3.003-1.314-4.644-1.314-.884 0-1.761.132-2.606.392l-2.625.808v4.988c0 .414-.336.75-.75.75zm5.981-8.438c1.919 0 3.796.531 5.43 1.537 1.399.862 3.01 1.317 4.659 1.317.821 0 1.635-.114 2.421-.337l2.987-.854c.16-.046.272-.194.272-.361v-11.727c0-.1-.039-.194-.11-.265s-.165-.11-.266-.11c-.035 0-.07.005-.104.014l-2.368.677c-.922.263-1.878.397-2.84.397-1.925 0-3.806-.531-5.438-1.535-1.397-.86-3.003-1.314-4.644-1.314-.884 0-1.761.132-2.606.392l-2.624.806v12.494l2.184-.672c.988-.304 2.013-.459 3.047-.459z"/></svg>