<svg enable-background="new 0 0 24 24" viewBox="0 0 24 24" xmlns="http://www.w3.org/2000/svg"><path d="m17.25 24c-3.722 0-6.75-3.028-6.75-6.75s3.028-6.75 6.75-6.75 6.75 3.028 6.75 6.75-3.028 6.75-6.75 6.75zm0-12c-2.895 0-5.25 2.355-5.25 5.25s2.355 5.25 5.25 5.25 5.25-2.355 5.25-5.25-2.355-5.25-5.25-5.25z"/><path d="m17.25 21c-.414 0-.75-.336-.75-.75v-2.25h-2.25c-.414 0-.75-.336-.75-.75s.336-.75.75-.75h2.25v-2.25c0-.414.336-.75.75-.75s.75.336.75.75v2.25h2.25c.414 0 .75.336.75.75s-.336.75-.75.75h-2.25v2.25c0 .414-.336.75-.75.75z"/><path d="m2.25 21c-1.241 0-2.25-1.009-2.25-2.25v-16.5c0-1.241 1.009-2.25 2.25-2.25h10.629c.601 0 1.165.234 1.59.658l2.872 2.872c.425.425.659.99.659 1.591v3.129c0 .414-.336.75-.75.75s-.75-.336-.75-.75v-3.129c0-.197-.08-.39-.219-.53l-2.872-2.872c-.142-.141-.33-.219-.53-.219h-10.629c-.414 0-.75.336-.75.75v16.5c0 .414.336.75.75.75h6c.414 0 .75.336.75.75s-.336.75-.75.75z"/><circle cx="5.25" cy="6" r="1.125"/><path d="m3.75 15c-.26 0-.498-.132-.636-.352-.138-.221-.153-.492-.038-.726l1.937-3.981c.014-.03.031-.058.049-.085.024-.038.05-.074.078-.108.286-.358.713-.562 1.172-.562.339 0 .672.117.937.329l.608.487 1.541-2.197c.108-.154.242-.285.399-.389.246-.163.532-.25.828-.25.504 0 .972.25 1.25.669l1.041 1.668c.106.17.14.371.094.566-.045.195-.164.361-.334.467-.119.074-.257.114-.397.114-.261 0-.499-.132-.637-.353l-1.029-1.65-1.988 2.871c-.118.169-.304.283-.508.312-.036.005-.071.007-.106.007-.17 0-.337-.059-.47-.165l-1.224-.982-1.368 2.81h3.301c.414 0 .75.336.75.75s-5.25.75-5.25.75z"/></svg>