<svg enable-background="new 0 0 24 24" viewBox="0 0 24 24" xmlns="http://www.w3.org/2000/svg"><path d="m11.321 23.997c-.2 0-.389-.078-.53-.22-.178-.177-.255-.431-.205-.677l.75-3.75c.029-.143.098-.274.2-.378l7.487-7.631c.544-.544 1.265-.843 2.031-.843s1.485.297 2.025.838c1.119 1.121 1.124 2.94.011 4.057l-7.484 7.63c-.106.108-.241.181-.389.21l-3.749.75c-.049.009-.098.014-.147.014zm.956-1.707 2.42-.484s7.332-7.475 7.335-7.478c.526-.532.524-1.394-.005-1.924-.262-.262-.609-.406-.977-.406-.364 0-.705.141-.962.398l-7.325 7.466z"/><path d="m.808 23.997c-.201 0-.389-.078-.531-.22-.224-.224-.283-.567-.146-.853l2.912-6.112c-.467-.814-.831-1.684-1.082-2.589-.803-2.896-.431-5.931 1.048-8.547s3.888-4.499 6.784-5.303c.991-.275 2.009-.415 3.026-.415 1.92 0 3.829.506 5.521 1.462 2.616 1.479 4.499 3.888 5.302 6.784.111.398-.124.813-.522.923-.067.018-.134.027-.201.027-.335 0-.633-.226-.722-.549-.696-2.51-2.328-4.598-4.595-5.879-1.467-.829-3.121-1.268-4.784-1.268-.881 0-1.763.121-2.623.36-2.51.696-4.598 2.328-5.88 4.596-1.282 2.267-1.604 4.898-.908 7.407.25.901.628 1.76 1.123 2.553.136.218.151.487.041.719l-2.176 4.567 4.566-2.175c.099-.048.211-.073.322-.073.14 0 .277.039.397.114.37.23.758.437 1.155.616.183.082.322.231.393.418.071.188.064.391-.018.574-.121.268-.39.442-.684.442-.107 0-.211-.022-.309-.067-.33-.149-.657-.316-.973-.497l-6.113 2.912c-.101.047-.212.073-.323.073z"/></svg>