<svg enable-background="new 0 0 24 24" viewBox="0 0 24 24" xmlns="http://www.w3.org/2000/svg"><path d="m.748 24c-.198 0-.391-.08-.531-.22-.186-.186-.261-.461-.196-.716l1.77-6.905c.006-.022.021-.063.03-.084.001-.004.007-.02.015-.037.041-.09.09-.163.151-.223l14.526-14.526c.825-.829 1.925-1.286 3.098-1.289 1.178 0 2.277.454 3.106 1.279l.029.029c.821.841 1.264 1.948 1.251 3.121-.014 1.173-.482 2.269-1.32 3.087l-14.494 14.494c-.062.062-.137.113-.231.154-.048.021-.078.033-.111.042l-6.908 1.772c-.061.015-.123.022-.185.022zm1.041-1.791 4.41-1.131-3.281-3.275zm5.868-1.795 13.02-13.02-4.074-4.074-13.023 13.024zm14.079-14.082c1.031-1.125 1.015-2.872-.059-3.972l-.02-.02c-.544-.541-1.268-.84-2.037-.84v-.375l-.001.375c-.734.002-1.421.271-1.954.762z"/></svg>