<svg enable-background="new 0 0 24 24" viewBox="0 0 24 24" xmlns="http://www.w3.org/2000/svg"><path d="m18.023 24.039c-1.193 0-2.362-.343-3.382-.992-.003-.002-.026-.017-.029-.018-5.393-3.646-9.975-8.229-13.619-13.623-1.606-2.524-1.259-5.747.84-7.846l.774-.774c.49-.489 1.141-.758 1.835-.758s1.345.269 1.834.758c0 0 3.262 3.266 3.262 3.266 1.01 1.012 1.009 2.657-.002 3.667-.426.427-.426 1.122.001 1.549 0 0 5.228 5.229 5.232 5.233.193.192.468.306.76.306s.567-.114.773-.32c.49-.489 1.141-.759 1.835-.759s1.345.269 1.835.758l3.261 3.26c1.011 1.012 1.011 2.658 0 3.669l-.774.774c-1.193 1.193-2.769 1.85-4.436 1.85zm-2.581-2.26c.798.5 1.683.757 2.583.757 1.267 0 2.464-.5 3.372-1.408l.774-.774c.426-.427.426-1.122 0-1.549l-3.26-3.259c-.206-.206-.481-.319-.774-.319s-.568.114-.774.32c-.489.489-1.141.759-1.834.759-.689 0-1.337-.266-1.824-.75l-5.228-5.229c-1.011-1.012-1.011-2.658 0-3.669.424-.425.426-1.118.001-1.545-.005-.005-.022-.023-.027-.028l-3.236-3.239c-.206-.205-.481-.318-.773-.318-.293 0-.568.114-.775.32l-.774.773c-1.597 1.597-1.866 4.045-.653 5.951 3.53 5.225 7.973 9.671 13.202 13.207z"/></svg>