<svg enable-background="new 0 0 24 24" viewBox="0 0 24 24" xmlns="http://www.w3.org/2000/svg"><path d="m2.25 18c-.827 0-1.5-.673-1.5-1.5v-15c0-.827.673-1.5 1.5-1.5h13.5c.827 0 1.5.673 1.5 1.5v15c0 .827-.673 1.5-1.5 1.5zm0-1.5h13.5v-3h-13.5zm13.5-4.5v-.468l-3.804-4.348c-.039-.045-.084-.085-.133-.12-.127-.089-.275-.136-.428-.136-.044 0-.089.004-.133.012-.198.035-.37.144-.485.309l-3.326 4.751zm-10.141 0 3.929-5.612c.345-.492.861-.821 1.453-.925.13-.023.263-.035.395-.035.461 0 .906.141 1.286.407.147.103.282.224.401.36l2.676 3.059v-7.754h-13.499v10.5z"/><path d="m4.5 21c-.414 0-.75-.336-.75-.75s.336-.75.75-.75h14.25v-15.75c0-.414.336-.75.75-.75s.75.336.75.75v15.75c0 .827-.673 1.5-1.5 1.5z"/><path d="m7.5 24c-.414 0-.75-.336-.75-.75s.336-.75.75-.75h14.25v-15.75c0-.414.336-.75.75-.75s.75.336.75.75v15.75c0 .827-.673 1.5-1.5 1.5z"/><circle cx="5.25" cy="4.5" r="1.125"/></svg>