<svg enable-background="new 0 0 24 24" viewBox="0 0 24 24" xmlns="http://www.w3.org/2000/svg"><path d="m12 23.999c-3.205 0-6.218-1.248-8.484-3.514s-3.515-5.279-3.515-8.484 1.248-6.218 3.514-8.485c2.267-2.266 5.28-3.515 8.485-3.515s6.218 1.248 8.485 3.514c2.267 2.267 3.515 5.28 3.515 8.485v2.25c0 2.068-1.682 3.75-3.75 3.75-1.551 0-2.922-.971-3.48-2.365-1.127 1.476-2.887 2.365-4.77 2.365-3.308 0-6-2.692-6-6s2.692-6 6-6 6 2.692 6 6v2.25c0 1.241 1.009 2.25 2.25 2.25s2.25-1.009 2.25-2.25v-2.25c0-2.804-1.092-5.441-3.075-7.424-1.984-1.983-4.62-3.075-7.425-3.075-2.804 0-5.441 1.092-7.424 3.075s-3.075 4.62-3.075 7.424c0 2.805 1.092 5.441 3.075 7.424s4.619 3.074 7.423 3.074c2.257 0 4.494-.746 6.299-2.1.132-.098.287-.15.45-.15.235 0 .459.112.6.299.248.331.181.802-.15 1.05-2.061 1.55-4.618 2.402-7.198 2.402zm0-16.499c-2.481 0-4.5 2.019-4.5 4.5s2.019 4.5 4.5 4.5 4.5-2.019 4.5-4.5-2.019-4.5-4.5-4.5z"/></svg>