<svg enable-background="new 0 0 24 24" viewBox="0 0 24 24" xmlns="http://www.w3.org/2000/svg"><path d="m2.709 23.241c-.245 0-.489-.04-.724-.12-.569-.194-1.029-.597-1.295-1.136-.328-.664-.307-1.447.054-2.093l4.833-7.898s-4.831-7.88-4.833-7.884c-.293-.525-.365-1.132-.201-1.71.164-.579.543-1.059 1.067-1.352.335-.187.715-.286 1.098-.286.343 0 .687.08.995.232l19.022 9.663c.461.235.77.701.811 1.222.006.038.01.076.01.115 0 .026-.002.05-.006.075-.006.202-.06.413-.157.606-.145.284-.372.511-.656.656l-19.015 9.673c-.32.157-.657.237-1.003.237zm-.671-2.591c-.106.191-.11.454-.003.672.128.258.386.418.675.418.115 0 .226-.026.33-.077l17.533-8.919h-13.696zm18.53-9.406-17.536-8.908c-.097-.048-.21-.074-.323-.074-.128 0-.255.033-.367.096-.359.2-.489.656-.291 1.016l4.825 7.87z"/></svg>